<?xml version="1.0" encoding="utf-8"?>
<!-- Generator: Adobe Illustrator 24.1.2, SVG Export Plug-In . SVG Version: 6.00 Build 0)  -->
<svg version="1.1" id="Layer_1" xmlns="http://www.w3.org/2000/svg" xmlns:xlink="http://www.w3.org/1999/xlink" x="0px" y="0px"
	 viewBox="0 0 50 50" style="enable-background:new 0 0 50 50;" xml:space="preserve">
<style type="text/css">
	.st0{fill:#5D5755;}
</style>
<g>
	<path class="st0" d="M25,50c-7.5,0-14.6-3.3-19.5-9l-0.9-1.1v4.9c0,1.3-1,2.3-2.3,2.3S0,46.1,0,44.8V33.5c0-1.3,1-2.3,2.3-2.3h11.3
		c1.3,0,2.3,1,2.3,2.3s-1,2.3-2.3,2.3H7.5l0.6,0.8c3.8,5.5,10.2,8.7,16.9,8.7c10.2,0,18.9-7.6,20.2-17.8c0.2-1.2,1.1-2,2.3-2
		c0.1,0,0.2,0,0.3,0c0.6,0.1,1.2,0.4,1.5,0.9s0.5,1.1,0.5,1.7C48.2,40.6,37.6,50,25,50z M2.5,24.5c-0.1,0-0.2,0-0.3,0
		c-0.6-0.1-1.2-0.4-1.5-0.9s-0.6-1.1-0.5-1.7C1.7,9.4,12.4,0,25,0c7.5,0,14.6,3.3,19.5,9l0.9,1.1V5.2c0-1.3,1-2.3,2.3-2.3
		s2.3,1,2.3,2.3v11.3c0,1.3-1,2.3-2.3,2.3H36.3c-1.3,0-2.3-1-2.3-2.3s1-2.3,2.3-2.3h6.2l-0.6-0.8C38.1,7.9,31.8,4.7,25,4.7
		c-10.3,0-18.9,7.7-20.2,17.8C4.7,23.6,3.7,24.5,2.5,24.5z"/>
</g>
</svg>
