<?xml version="1.0" encoding="utf-8"?>
<!-- Generator: Adobe Illustrator 24.1.1, SVG Export Plug-In . SVG Version: 6.00 Build 0)  -->
<svg version="1.1" id="Layer_1" xmlns="http://www.w3.org/2000/svg" xmlns:xlink="http://www.w3.org/1999/xlink" x="0px" y="0px"
	 viewBox="0 0 50 50" style="enable-background:new 0 0 50 50;" xml:space="preserve">
<g>
	<path d="M25,50c-7.55,0-14.64-3.29-19.45-9.02l-0.9-1.07v4.94c0,1.28-1.04,2.32-2.32,2.32S0,46.12,0,44.84V33.5
		c0-1.28,1.04-2.32,2.32-2.32h11.34c1.28,0,2.32,1.04,2.32,2.32s-1.04,2.32-2.32,2.32H7.5l0.56,0.8c3.83,5.46,10.16,8.72,16.93,8.72
		c10.23,0,18.91-7.64,20.19-17.77c0.15-1.16,1.14-2.03,2.3-2.03c0.1,0,0.2,0.01,0.29,0.02c0.62,0.08,1.16,0.39,1.54,0.88
		c0.38,0.49,0.55,1.1,0.47,1.72C48.23,40.61,37.57,50,25,50z M2.5,24.5c-0.1,0-0.19-0.01-0.29-0.02c-0.62-0.08-1.17-0.39-1.55-0.88
		c-0.38-0.49-0.55-1.1-0.47-1.72C1.74,9.41,12.41,0,25,0c7.54,0,14.63,3.29,19.45,9.02l0.9,1.07V5.16c0-1.28,1.04-2.32,2.32-2.32
		c1.28,0,2.32,1.04,2.32,2.32V16.5c0,1.28-1.04,2.32-2.32,2.32H36.34c-1.28,0-2.32-1.04-2.32-2.32c0-1.28,1.04-2.32,2.32-2.32h6.16
		l-0.57-0.8C38.09,7.91,31.76,4.65,25,4.65c-10.25,0-18.93,7.66-20.19,17.81C4.66,23.62,3.67,24.5,2.5,24.5z"/>
</g>
</svg>
