<?xml version="1.0" encoding="utf-8"?>
<!-- Generator: Adobe Illustrator 24.1.1, SVG Export Plug-In . SVG Version: 6.00 Build 0)  -->
<svg version="1.1" id="Layer_1" xmlns="http://www.w3.org/2000/svg" xmlns:xlink="http://www.w3.org/1999/xlink" x="0px" y="0px"
	 viewBox="0 0 50 50" style="enable-background:new 0 0 50 50;" xml:space="preserve">
<path d="M49.86,19.15c-0.37-1.14-1.44-1.94-2.87-2.15l-13.2-1.92l-0.27-0.54c-0.56-1.25-3.56-7.32-5.6-11.39
	C27.29,1.85,26.2,1.08,25,1.08s-2.29,0.77-2.93,2.06l-5.92,11.98l-0.61,0.07c-1.42,0.16-8.06,1.13-12.54,1.8
	c-1.43,0.21-2.5,1.01-2.87,2.15c-0.37,1.14,0.03,2.42,1.06,3.42l9.56,9.32l-0.13,0.7c-0.32,1.57-1.41,8.02-2.14,12.39
	c-0.2,1.15,0.04,2.19,0.66,2.93c0.55,0.65,1.33,1,2.22,1c0.61,0,1.23-0.17,1.86-0.49l11.78-6.19l0.59,0.28
	c1.24,0.71,7.19,3.82,11.2,5.91c0.62,0.33,1.25,0.49,1.86,0.49c0.89,0,1.68-0.36,2.22-1c0.63-0.74,0.86-1.78,0.66-2.93l-1.99-13.42
	c0.41-0.31,5.77-5.54,9.27-8.99C49.84,21.56,50.23,20.28,49.86,19.15z M36.61,28.82c-0.98,0.96-1.51,2.57-1.28,3.93l1.98,11.39
	l-10.24-5.39c-0.59-0.31-1.32-0.48-2.06-0.48c-0.74,0-1.48,0.17-2.06,0.48l-10.22,5.37l1.95-11.38c0.23-1.35-0.29-2.97-1.28-3.93
	l-8.27-8.06l11.42-1.66c1.36-0.2,2.73-1.2,3.34-2.43L25,6.34l5.11,10.34c0.61,1.23,1.98,2.23,3.34,2.43l11.41,1.67L36.61,28.82z"/>
</svg>
