<?xml version="1.0" encoding="utf-8"?>
<!-- Generator: Adobe Illustrator 24.1.2, SVG Export Plug-In . SVG Version: 6.00 Build 0)  -->
<svg version="1.1" id="Layer_1" xmlns="http://www.w3.org/2000/svg" xmlns:xlink="http://www.w3.org/1999/xlink" x="0px" y="0px"
	 viewBox="0 0 50 50" style="enable-background:new 0 0 50 50;" xml:space="preserve">
<style type="text/css">
	.st0{fill:#5D5755;}
</style>
<path class="st0" d="M49.9,19.1C49.5,18,48.4,17.2,47,17l-13.2-1.9l-0.3-0.5C33,13.3,30,7.2,27.9,3.1c-0.6-1.3-1.7-2.1-2.9-2.1
	s-2.3,0.8-2.9,2.1l-5.9,12l-0.6,0.1C14.1,15.3,7.5,16.3,3,17c-1.4,0.2-2.5,1-2.9,2.1s0,2.4,1.1,3.4l9.6,9.3l-0.1,0.7
	c-0.3,1.6-1.4,8-2.1,12.4c-0.2,1.2,0,2.2,0.7,2.9c0.6,0.7,1.3,1,2.2,1c0.6,0,1.2-0.2,1.9-0.5L25,42.2l0.6,0.3
	c1.2,0.7,7.2,3.8,11.2,5.9c0.6,0.3,1.3,0.5,1.9,0.5c0.9,0,1.7-0.4,2.2-1c0.6-0.7,0.9-1.8,0.7-2.9l-2-13.4c0.4-0.3,5.8-5.5,9.3-9
	C49.8,21.6,50.2,20.3,49.9,19.1z M36.6,28.8c-1,1-1.5,2.6-1.3,3.9l2,11.4l-10.2-5.4c-0.6-0.3-1.3-0.5-2.1-0.5s-1.5,0.2-2.1,0.5
	l-10.2,5.4l1.9-11.4c0.2-1.4-0.3-3-1.3-3.9l-8.3-8.1l11.4-1.7c1.4-0.2,2.7-1.2,3.3-2.4L25,6.3l5.1,10.3c0.6,1.2,2,2.2,3.3,2.4
	l11.4,1.7L36.6,28.8z"/>
</svg>
