<?xml version="1.0" encoding="utf-8"?>
<!-- Generator: Adobe Illustrator 24.1.1, SVG Export Plug-In . SVG Version: 6.00 Build 0)  -->
<svg version="1.1" id="Layer_1" xmlns="http://www.w3.org/2000/svg" xmlns:xlink="http://www.w3.org/1999/xlink" x="0px" y="0px"
	 width="50px" height="39px" viewBox="0 0 50 39" style="enable-background:new 0 0 50 39;" xml:space="preserve">
<style type="text/css">
	.st0{fill:#FFFFFF;}
	.st1{fill:#F26324;}
	.st2{fill:#E92328;}
	.st3{fill:#F59E21;}
</style>
<g>
	<path class="st0" d="M9.1,38.8v-2.6c0.1-0.8-0.6-1.6-1.4-1.6c-0.1,0-0.1,0-0.2,0c-0.6,0-1.1,0.2-1.4,0.7c-0.3-0.5-0.8-0.8-1.4-0.7
		c-0.5,0-0.9,0.2-1.2,0.6v-0.5H2.6v4.1h0.9v-2.3c-0.1-0.5,0.3-1,0.8-1.1c0.1,0,0.1,0,0.2,0c0.6,0,0.9,0.4,0.9,1.1v2.3h0.9v-2.3
		c-0.1-0.5,0.3-1,0.8-1.1c0.1,0,0.1,0,0.2,0c0.6,0,0.9,0.4,0.9,1.1v2.3H9.1z M22.4,34.6h-1.5v-1.2H20v1.2h-0.8v0.8H20v1.9
		c0,1,0.4,1.5,1.4,1.5c0.4,0,0.8-0.1,1.1-0.3l-0.3-0.8c-0.2,0.2-0.5,0.2-0.8,0.2c-0.4,0-0.6-0.3-0.6-0.7v-1.9h1.4L22.4,34.6z
		 M30.1,34.5c-0.5,0-0.8,0.2-1.1,0.6v-0.5h-0.9v4.1H29v-2.3c0-0.7,0.3-1.1,0.8-1.1c0.2,0,0.4,0,0.6,0.1l0.3-0.8
		C30.4,34.6,30.2,34.5,30.1,34.5L30.1,34.5z M18.5,35c-0.5-0.3-1.1-0.5-1.7-0.4c-1,0-1.7,0.5-1.7,1.3c0,0.7,0.5,1.1,1.4,1.2l0.4,0.1
		c0.5,0.1,0.7,0.2,0.7,0.4c0,0.3-0.3,0.5-0.9,0.5c-0.5,0-1-0.2-1.4-0.4L15,38.3c0.5,0.4,1.1,0.5,1.8,0.5c1.2,0,1.9-0.6,1.9-1.3
		s-0.5-1.1-1.4-1.3l-0.4-0.1c-0.4-0.1-0.7-0.1-0.7-0.4c0-0.3,0.3-0.5,0.8-0.5s0.9,0.1,1.3,0.4L18.5,35z M42.5,34.5
		c-0.5,0-0.8,0.2-1.1,0.6v-0.5h-0.9v4.1h0.9v-2.3c0-0.7,0.3-1.1,0.8-1.1c0.2,0,0.4,0,0.6,0.1l0.3-0.8C42.9,34.6,42.6,34.5,42.5,34.5
		L42.5,34.5z M30.9,36.7c0,1.1,0.8,2.1,2,2.1c0.1,0,0.1,0,0.2,0c0.5,0,1.1-0.2,1.5-0.5l-0.4-0.7c-0.3,0.2-0.7,0.4-1.1,0.4
		c-0.7-0.1-1.3-0.7-1.2-1.4c0.1-0.6,0.6-1.1,1.2-1.2c0.4,0,0.8,0.1,1.1,0.4l0.4-0.7c-0.4-0.3-0.9-0.5-1.5-0.5
		c-1.1-0.1-2.1,0.8-2.2,2C30.9,36.5,30.9,36.6,30.9,36.7L30.9,36.7z M39.3,36.7v-2.1h-0.9v0.5c-0.3-0.4-0.8-0.6-1.3-0.6
		c-1.2,0-2.1,1-2.1,2.1c0,1.2,1,2.1,2.1,2.1c0.5,0,1-0.2,1.3-0.6v0.5h0.9V36.7z M36,36.7c0-0.7,0.6-1.2,1.3-1.2s1.2,0.6,1.2,1.3
		S37.9,38,37.2,38S36,37.4,36,36.7L36,36.7z M25.2,34.5c-1.2,0-2.1,1-2.1,2.2s1,2.1,2.2,2.1l0,0c0.6,0,1.2-0.2,1.7-0.6l-0.4-0.7
		c-0.3,0.3-0.8,0.4-1.2,0.4c-0.6,0.1-1.1-0.4-1.2-1h3c0-0.1,0-0.2,0-0.3C27.2,35.4,26.4,34.5,25.2,34.5L25.2,34.5z M25.2,35.3
		c0.6,0,1,0.4,1,1l0,0h-2.1C24.1,35.8,24.6,35.3,25.2,35.3L25.2,35.3z M47.6,36.7V33h-0.8v2.1c-0.3-0.4-0.8-0.6-1.3-0.6
		c-1.2,0-2.1,1-2.1,2.1c0,1.2,1,2.1,2.1,2.1c0.5,0,1-0.2,1.3-0.6v0.5h0.8V36.7z M49.1,38.2c0.1,0,0.1,0,0.2,0c0.1,0,0.1,0.1,0.1,0.1
		l0.1,0.1c0,0.1,0,0.2,0,0.3s-0.1,0.1-0.1,0.1l-0.1,0.1c-0.1,0-0.1,0-0.2,0c-0.2,0-0.3-0.1-0.4-0.2c0-0.1,0-0.2,0-0.3
		s0.1-0.1,0.1-0.1l0.1-0.1C49,38.2,49,38.2,49.1,38.2L49.1,38.2z M49.1,38.9L49.1,38.9c0.1,0,0.2,0,0.2-0.1c0.1-0.1,0.1-0.3,0-0.4
		l-0.1-0.1h-0.1H49c0,0-0.1,0-0.1,0.1c-0.1,0.1-0.1,0.3,0,0.4L49.1,38.9C49,38.9,49,38.9,49.1,38.9L49.1,38.9z M49.1,38.4L49.1,38.4
		L49.1,38.4l0.1,0.2h-0.1l0.1,0.2h-0.1L49,38.6l0,0v0.2h-0.1v-0.4L49.1,38.4z M49,38.4L49,38.4L49,38.4c0.1,0.1,0.1,0.1,0.2,0.1l0,0
		l0,0C49.1,38.5,49.1,38.5,49,38.4L49,38.4z M44.3,36.7c0-0.7,0.6-1.2,1.3-1.2s1.2,0.6,1.2,1.3S46.2,38,45.6,38
		C44.8,38,44.3,37.5,44.3,36.7C44.3,36.8,44.3,36.7,44.3,36.7z M14.1,36.7v-2.1h-0.9v0.5c-0.3-0.4-0.8-0.6-1.3-0.6
		c-1.2,0-2.1,1-2.1,2.1s1,2.1,2.1,2.1c0.5,0,1-0.2,1.3-0.6v0.5h0.9C14.1,38.6,14.1,36.7,14.1,36.7z M10.8,36.7
		c0-0.7,0.6-1.2,1.3-1.2s1.2,0.6,1.2,1.3S12.7,38,12,38S10.8,37.5,10.8,36.7C10.8,36.8,10.8,36.7,10.8,36.7L10.8,36.7z"/>
	<g id="_Group_">
		<rect x="18.2" y="3.3" class="st1" width="13.5" height="24.3"/>
		<path id="_Path_" class="st2" d="M19.1,15.5c0-4.7,2.2-9.2,5.9-12.2C18.3-1.9,8.5-0.8,3.3,6s-4.1,16.4,2.6,21.7
			c5.6,4.4,13.5,4.4,19.1,0C21.2,24.7,19.1,20.3,19.1,15.5z"/>
		<path class="st3" d="M50,15.5c0,8.5-6.9,15.4-15.5,15.4c-3.5,0-6.8-1.2-9.6-3.3c6.7-5.3,7.9-15,2.6-21.7c-0.8-1-1.6-1.8-2.6-2.6
			C31.7-2,41.4-0.8,46.7,5.9C48.9,8.7,50,12,50,15.5L50,15.5z"/>
		<path class="st3" d="M48.5,25.1v-0.5h0.2v-0.1h-0.5v0.1h0.2L48.5,25.1L48.5,25.1z M49.5,25.1v-0.6h-0.2l-0.2,0.4L49,24.5h-0.2v0.6
			H49v-0.5l0.2,0.4h0.1l0.2-0.4V25.1L49.5,25.1z"/>
	</g>
</g>
</svg>
