<?xml version="1.0" encoding="utf-8"?>
<!-- Generator: Adobe Illustrator 24.1.1, SVG Export Plug-In . SVG Version: 6.00 Build 0)  -->
<svg version="1.1" id="Layer_1" xmlns="http://www.w3.org/2000/svg" xmlns:xlink="http://www.w3.org/1999/xlink" x="0px" y="0px"
	 viewBox="0 0 50 50" style="enable-background:new 0 0 50 50;" xml:space="preserve">
<style type="text/css">
	.st0{fill-rule:evenodd;clip-rule:evenodd;}
</style>
<g>
	<path class="st0" d="M34.59,15.06c-0.65,0-1.29,0.31-1.74,0.85L22.69,29.39l-5.51-7.27c-0.43-0.52-1.08-0.83-1.72-0.83
		c-0.45,0-0.87,0.15-1.21,0.43c-0.42,0.35-0.71,0.85-0.8,1.37c-0.1,0.58,0.04,1.13,0.39,1.54L20.91,34
		c0.33,0.65,1.07,0.94,1.67,0.94c0.6,0,1.34-0.29,1.62-0.86l12.03-15.7c0.61-0.91,0.42-2.18-0.43-2.89
		C35.46,15.21,35.04,15.06,34.59,15.06z"/>
	<path class="st0" d="M48.83,22.06l-2.6-2.7c-0.55-0.57-0.88-1.59-0.77-2.38L46,13.24c0.31-2.22-1.23-4.35-3.45-4.74l-3.65-0.65
		c-0.78-0.14-1.64-0.77-2.01-1.47l-1.75-3.32c-0.72-1.38-2.15-2.23-3.72-2.23c-0.64,0-1.25,0.14-1.83,0.43L26.25,2.9
		C25.9,3.07,25.46,3.16,25,3.16c-0.46,0-0.9-0.09-1.24-0.26l-3.34-1.65c-0.57-0.28-1.18-0.42-1.82-0.42c-1.57,0-3,0.85-3.72,2.23
		l-1.75,3.32c-0.37,0.7-1.23,1.34-2.01,1.47L7.45,8.5C5.24,8.89,3.69,11.02,4,13.24l0.53,3.74c0.11,0.79-0.22,1.81-0.77,2.38
		l-2.6,2.71c-1.55,1.62-1.55,4.25,0,5.87l2.6,2.71c0.55,0.57,0.88,1.59,0.77,2.38L4,36.76c-0.31,2.22,1.24,4.35,3.45,4.74l3.65,0.65
		c0.78,0.14,1.64,0.77,2.01,1.47l1.75,3.33c0.73,1.38,2.15,2.23,3.71,2.23c0.64,0,1.25-0.14,1.83-0.43l3.34-1.65
		c0.34-0.17,0.78-0.26,1.24-0.26c0.46,0,0.9,0.09,1.25,0.26l3.34,1.65c0.57,0.28,1.18,0.42,1.82,0.42c1.57,0,3-0.85,3.72-2.23
		l1.75-3.33c0.37-0.7,1.23-1.33,2.01-1.47l3.65-0.65c2.21-0.39,3.76-2.52,3.45-4.74l-0.53-3.74c-0.11-0.79,0.22-1.81,0.77-2.38
		l2.6-2.71C50.39,26.32,50.39,23.68,48.83,22.06z M43.68,28.19c-1.29,1.34-1.98,3.48-1.72,5.32l0.53,3.74
		c0.08,0.54,0.08,0.54-4.21,1.41c-1.84,0.33-3.66,1.66-4.53,3.31l-1.9,3.6h-0.31c-0.14,0-0.23,0-3.73-1.64
		c-0.83-0.41-1.8-0.63-2.81-0.63s-1.98,0.22-2.81,0.63l-3.45,1.7h-0.12c-0.36,0-0.36,0-2.37-3.66c-0.87-1.65-2.69-2.98-4.54-3.31
		c-4.27-0.86-4.27-0.86-4.2-1.4l0.53-3.74c0.26-1.84-0.43-3.98-1.73-5.33c-2.96-3.27-2.96-3.27-2.59-3.66l2.6-2.71
		c1.29-1.34,1.98-3.48,1.72-5.33c-0.51-4.39-0.51-4.39,0.04-4.49l3.65-0.65c1.84-0.32,3.66-1.65,4.53-3.31l1.9-3.6h0.31
		c0.14,0,0.23,0,3.74,1.64C23.02,6.48,23.99,6.7,25,6.7s1.98-0.22,2.81-0.63l3.45-1.7h0.12c0.36,0,0.36,0,2.37,3.66
		c0.87,1.65,2.69,2.98,4.53,3.31l3.65,0.64c0.55,0.1,0.55,0.1,0.03,4.5c-0.26,1.84,0.43,3.98,1.72,5.32l2.6,2.71
		C46.66,24.91,46.66,24.91,43.68,28.19z"/>
</g>
</svg>
