<?xml version="1.0" encoding="utf-8"?>
<!-- Generator: Adobe Illustrator 24.1.1, SVG Export Plug-In . SVG Version: 6.00 Build 0)  -->
<svg version="1.1" id="Layer_1" xmlns="http://www.w3.org/2000/svg" xmlns:xlink="http://www.w3.org/1999/xlink" x="0px" y="0px"
	 width="50px" height="31.1px" viewBox="0 0 50 31.1" style="enable-background:new 0 0 50 31.1;" xml:space="preserve">
<style type="text/css">
	.st0{fill:#FFFFFF;}
	.st1{fill:#FCB316;}
	.st2{fill:#10357F;}
</style>
<g>
	<rect y="0.5" class="st0" width="50" height="30.3"/>
	<rect y="26.7" class="st1" width="50" height="4.5"/>
	<rect class="st2" width="50" height="4.5"/>
	<path class="st2" d="M20,9.4l-5.2,12.3h-3.4l-2.5-9.8c-0.2-0.6-0.3-0.8-0.8-1.1c-0.8-0.4-2-0.8-3.1-1l0.1-0.4h5.4
		c0.7,0,1.3,0.5,1.5,1.3l1.3,7.1l3.3-8.4C16.6,9.4,20,9.4,20,9.4z M33.2,17.7c0-3.3-4.5-3.4-4.5-4.9c0-0.4,0.4-0.9,1.4-1
		c0.5-0.1,1.7-0.1,3.1,0.6l0.6-2.6c-0.8-0.3-1.8-0.5-3-0.5c-3.2,0-5.4,1.7-5.4,4.1c0,1.8,1.6,2.8,2.8,3.4c1.2,0.6,1.7,1,1.7,1.5
		c0,0.8-1,1.2-1.9,1.2c-1.6,0-2.5-0.4-3.3-0.8l-0.6,2.7c0.7,0.3,2.1,0.6,3.5,0.7C31,21.9,33.2,20.3,33.2,17.7 M41.5,21.7h2.9
		L41.9,9.4h-2.7c-0.6,0-1.1,0.4-1.4,0.9L33,21.7h3.3l0.7-1.8h4.1L41.5,21.7z M38,17.4l1.7-4.6l1,4.6H38z M24.6,9.4L22,21.7h-3.2
		l2.6-12.3C21.4,9.4,24.6,9.4,24.6,9.4z"/>
</g>
</svg>
